<svg width="27" height="27" viewBox="0 0 27 27" fill="none" xmlns="http://www.w3.org/2000/svg">
<g id="checkbox">
<path id="Rectangle 69" d="M0 9C0 4.02944 4.02944 0 9 0H18C22.9706 0 27 4.02944 27 9V18C27 22.9706 22.9706 27 18 27H9C4.02944 27 0 22.9706 0 18V9Z" fill="#0068FF"/>
<path id="Rectangle 70" d="M5.77058 12.4703C6.45847 11.7389 7.60903 11.7036 8.34044 12.3915L12.8741 16.6554C13.6055 17.3433 13.6407 18.4939 12.9528 19.2253V19.2253C12.265 19.9567 11.1144 19.992 10.383 19.3041L5.84937 15.0402C5.11796 14.3523 5.08269 13.2017 5.77058 12.4703V12.4703Z" fill="#D9D9D9"/>
<path id="Rectangle 71" d="M21.2188 7.97552C21.9604 8.67859 21.9916 9.8497 21.2885 10.5913L13.0432 19.2883C12.3401 20.0298 11.169 20.0611 10.4274 19.358V19.358C9.6858 18.6549 9.65459 17.4838 10.3577 16.7422L18.603 8.04524C19.3061 7.30367 20.4772 7.27245 21.2188 7.97552V7.97552Z" fill="#D9D9D9"/>
</g>
</svg>
